<?xml version="1.0" standalone="no"?>
<!DOCTYPE svg PUBLIC "-//W3C//DTD SVG 20010904//EN"
 "http://www.w3.org/TR/2001/REC-SVG-20010904/DTD/svg10.dtd">
<svg version="1.0" xmlns="http://www.w3.org/2000/svg"
 width="361.000000pt" height="361.000000pt" viewBox="0 0 361.000000 361.000000"
 preserveAspectRatio="xMidYMid meet">

<g transform="translate(0.000000,361.000000) scale(0.100000,-0.100000)"
fill="#000000" stroke="none">
<path d="M0 1805 l0 -1805 1805 0 1805 0 0 1805 0 1805 -1805 0 -1805 0 0
-1805z m2448 556 c6 -15 20 -38 32 -49 24 -22 20 -42 -10 -42 -20 0 -80 54
-80 72 0 13 30 48 41 48 4 0 12 -13 17 -29z m-1166 -11 c67 -19 131 -70 161
-129 l27 -55 0 -338 0 -337 -25 -57 c-14 -31 -25 -63 -25 -72 0 -26 -12 -5
-42 71 l-28 72 0 340 c0 334 -1 341 -23 380 -50 89 -152 112 -218 49 -52 -49
-59 -72 -59 -201 0 -65 -4 -124 -9 -131 -6 -10 -25 -13 -62 -10 l-54 3 -3 110
c-3 121 9 171 55 226 25 29 84 65 133 80 37 11 130 10 172 -1z m408 -345 c0
-209 2 -251 17 -278 42 -81 117 -77 162 10 7 14 11 105 11 267 l0 246 36 0 35
0 -3 -247 c-3 -281 -7 -297 -84 -340 -81 -46 -182 -14 -223 70 -19 40 -21 60
-21 273 0 127 3 234 7 237 3 4 19 7 35 7 l28 0 0 -245z m808 -31 l-3 -276 -33
-29 c-22 -20 -43 -29 -67 -29 -19 0 -35 5 -35 10 0 6 6 10 14 10 8 0 24 12 35
26 20 26 21 39 21 295 l0 269 35 0 36 0 -3 -276z m289 262 c40 -9 98 -73 112
-123 6 -21 11 -132 11 -250 0 -172 -3 -213 -13 -213 -19 0 -44 30 -52 63 -8
30 -17 34 -35 12 -17 -21 -73 -29 -113 -16 -65 22 -127 111 -127 183 0 18 10
51 23 73 50 89 151 114 215 53 l34 -33 -4 71 c-6 81 -26 120 -74 140 -45 19
-96 2 -134 -44 -34 -42 -40 -30 -9 22 21 35 83 74 116 71 10 -1 32 -5 50 -9z
m-594 -10 c43 -17 93 -76 106 -123 16 -55 13 -141 -5 -203 -15 -51 -53 -99
-97 -125 -16 -9 -16 -12 2 -51 25 -55 79 -114 121 -133 32 -14 33 -15 12 -19
-13 -2 -37 2 -53 9 -40 16 -124 112 -146 166 -15 37 -22 43 -40 38 -21 -5 -53
25 -53 50 1 19 26 44 53 50 20 5 32 1 53 -20 14 -14 32 -24 39 -21 7 2 23 26
36 53 30 62 34 190 6 240 -25 46 -64 65 -102 49 -17 -7 -36 -20 -44 -29 -7
-10 -16 -17 -20 -17 -12 0 -42 60 -36 71 19 29 114 38 168 15z"/>
<path d="M2649 1955 c-35 -19 -55 -68 -43 -103 14 -40 69 -72 121 -72 38 0 51
6 79 34 42 42 43 74 7 111 -47 47 -112 58 -164 30z"/>
</g>
</svg>
